# Aspose.3D Wavefront OBJ Exporter
# Copyright 2004-2023 Aspose Pty Ltd.
# File created: 01/29/2024 11:26:15

mtllib material.lib
g Cube

#
# object Cube
#

v 1.1208917 1.1208843 -45.051014
v 1.1208917 -1.120899 -45.051014
v 6.570795 6.570807 75.11164
v 6.570795 -6.5707827 75.11165
v -1.1208917 1.1208843 -45.051014
v -1.1208917 -1.120899 -45.051014
v -6.570795 6.570807 75.11164
v -6.570795 -6.5707827 75.11165
v -3.0621202 -3.0621274 -44.179947
v 3.0621202 3.062113 -44.179947
v -3.0621202 3.062113 -44.179947
v 3.0621202 -3.0621274 -44.179947
v -6.570719 -6.5707254 -41.096424
v 6.570719 6.570712 -41.096428
v -6.570719 6.570712 -41.096428
v 6.570719 -6.5707254 -41.096424
v -9.712212 -9.712218 -36.91026
v 9.712212 9.712206 -36.910263
v -9.712212 9.712206 -36.910263
v 9.712212 -9.712218 -36.91026
v -12.527121 -12.527124 -26.547958
v 12.527121 12.527116 -26.547962
v -12.527121 12.527116 -26.547962
v 12.527121 -12.527124 -26.547958
v -11.449035 11.44903 -32.190815
v 11.449035 -11.44904 -32.19081
v -11.449035 -11.44904 -32.19081
v 11.449035 11.44903 -32.190815
v -9.3504505 -9.350446 31.047949
v 9.3504505 9.350456 31.047945
v -9.3504505 9.350456 31.047947
v 9.3504505 -9.350446 31.04795
v -7.9363356 -7.9363275 50.487934
v 7.9363356 7.9363437 50.487934
v -7.9363356 7.9363437 50.487934
v 7.9363356 -7.9363275 50.487934
# 36 vertices

vn 0 0.94924474 0.3145385
vn 0 0.94924474 0.3145385
vn 0 0.94924474 0.3145385
vn 0 0.94924474 0.3145385
vn 0 1.6292068E-07 1
vn 0 1.6292068E-07 1
vn 0 1.6292068E-07 1
vn 0 1.6292068E-07 1
vn -0.07488762 -1.624632E-07 -0.99719197
vn -0.07488762 -1.624632E-07 -0.99719197
vn -0.07488762 -1.624632E-07 -0.99719197
vn -0.07488762 -1.624632E-07 -0.99719197
vn 0 -0.9492446 0.3145388
vn 0 -0.9492446 0.3145388
vn 0 -0.9492446 0.3145388
vn 0 -0.9492446 0.3145388
vn 0.94924474 5.124483E-08 0.3145385
vn 0.94924474 5.124483E-08 0.3145385
vn 0.94924474 5.124483E-08 0.3145385
vn 0.94924474 5.124483E-08 0.3145385
vn 0 -1.6292068E-07 -1
vn 0 -1.6292068E-07 -1
vn 0 -1.6292068E-07 -1
vn 0 -1.6292068E-07 -1
vn 0.0748876 -1.6246321E-07 -0.997192
vn 0.0748876 -1.6246321E-07 -0.997192
vn 0.0748876 -1.6246321E-07 -0.997192
vn 0.0748876 -1.6246321E-07 -0.997192
vn 0 -0.07488776 -0.997192
vn 0 -0.07488776 -0.997192
vn 0 -0.07488776 -0.997192
vn 0 -0.07488776 -0.997192
vn -0.14551932 -1.6118646E-07 -0.98935544
vn -0.14551932 -1.6118646E-07 -0.98935544
vn -0.14551932 -1.6118646E-07 -0.98935544
vn -0.14551932 -1.6118646E-07 -0.98935544
vn 0 0.07488743 -0.997192
vn 0 0.07488743 -0.997192
vn 0 0.07488743 -0.997192
vn 0 0.07488743 -0.997192
vn -0.21766858 -1.5901428E-07 -0.97602266
vn -0.21766858 -1.5901428E-07 -0.97602266
vn -0.21766858 -1.5901428E-07 -0.97602266
vn -0.21766858 -1.5901428E-07 -0.97602266
vn 0.14551932 -1.6118646E-07 -0.98935544
vn 0.14551932 -1.6118646E-07 -0.98935544
vn 0.14551932 -1.6118646E-07 -0.98935544
vn 0.14551932 -1.6118646E-07 -0.98935544
vn 0 -0.14551933 -0.98935544
vn 0 -0.14551933 -0.98935544
vn 0 -0.14551933 -0.98935544
vn 0 -0.14551933 -0.98935544
vn 0 0.145519 -0.98935544
vn 0 0.145519 -0.98935544
vn 0 0.145519 -0.98935544
vn 0 0.145519 -0.98935544
vn -0.41397193 -1.4830499E-07 -0.9102896
vn -0.41397193 -1.4830499E-07 -0.9102896
vn -0.41397193 -1.4830499E-07 -0.9102896
vn -0.41397193 -1.4830499E-07 -0.9102896
vn 0.21766858 -1.5901428E-07 -0.97602266
vn 0.21766858 -1.5901428E-07 -0.97602266
vn 0.21766858 -1.5901428E-07 -0.97602266
vn 0.21766858 -1.5901428E-07 -0.97602266
vn 0 -0.21766874 -0.9760227
vn 0 -0.21766874 -0.9760227
vn 0 -0.21766874 -0.9760227
vn 0 -0.21766874 -0.9760227
vn 0 0.21766841 -0.97602284
vn 0 0.21766841 -0.97602284
vn 0 0.21766841 -0.97602284
vn 0 0.21766841 -0.97602284
vn -0.94975495 4.8668735E-08 0.31299448
vn -0.94975495 4.8668735E-08 0.31299448
vn -0.94975495 4.8668735E-08 0.31299448
vn -0.94975495 4.8668735E-08 0.31299448
vn 0.65892726 -1.2255002E-07 -0.7522067
vn 0.65892726 -1.2255002E-07 -0.7522067
vn 0.65892726 -1.2255002E-07 -0.7522067
vn 0.65892726 -1.2255002E-07 -0.7522067
vn 0 -0.6589275 -0.7522064
vn 0 -0.6589275 -0.7522064
vn 0 -0.6589275 -0.7522064
vn 0 -0.6589275 -0.7522064
vn 0 0.65892726 -0.7522066
vn 0 0.65892726 -0.7522066
vn 0 0.65892726 -0.7522066
vn 0 0.65892726 -0.7522066
vn 0 0.4139719 -0.91028976
vn 0 0.4139719 -0.91028976
vn 0 0.4139719 -0.91028976
vn 0 0.4139719 -0.91028976
vn 0 -0.4139722 -0.91028965
vn 0 -0.4139722 -0.91028965
vn 0 -0.4139722 -0.91028965
vn 0 -0.4139722 -0.91028965
vn 0.41397184 -1.4830502E-07 -0.9102897
vn 0.41397184 -1.4830502E-07 -0.9102897
vn 0.41397184 -1.4830502E-07 -0.9102897
vn 0.41397184 -1.4830502E-07 -0.9102897
vn -0.6589276 -1.2254996E-07 -0.7522063
vn -0.6589276 -1.2254996E-07 -0.7522063
vn -0.6589276 -1.2254996E-07 -0.7522063
vn -0.6589276 -1.2254996E-07 -0.7522063
vn -0.9171166 5.1476945E-08 0.39861912
vn -0.9171166 5.1476945E-08 0.39861912
vn -0.9171166 5.1476945E-08 0.39861912
vn -0.9171166 5.1476945E-08 0.39861912
vn 0.94975495 5.331782E-08 0.31299454
vn 0.94975495 5.331782E-08 0.31299454
vn 0.94975495 5.331782E-08 0.31299454
vn 0.94975495 5.331782E-08 0.31299454
vn 1.3212914E-08 -0.9497549 0.3129946
vn 1.3212914E-08 -0.9497549 0.3129946
vn 1.3212914E-08 -0.9497549 0.3129946
vn 1.3212914E-08 -0.9497549 0.3129946
vn -1.3212914E-08 0.949755 0.3129943
vn -1.3212914E-08 0.949755 0.3129943
vn -1.3212914E-08 0.949755 0.3129943
vn -1.3212914E-08 0.949755 0.3129943
vn -0.94924474 5.124483E-08 0.3145385
vn -0.94924474 5.124483E-08 0.3145385
vn -0.94924474 5.124483E-08 0.3145385
vn -0.94924474 5.124483E-08 0.3145385
vn 0.9171166 7.840965E-08 0.39861912
vn 0.9171166 7.840965E-08 0.39861912
vn 0.9171166 7.840965E-08 0.39861912
vn 0.9171166 7.840965E-08 0.39861912
vn 0 -0.91711646 0.39861923
vn 0 -0.91711646 0.39861923
vn 0 -0.91711646 0.39861923
vn 0 -0.91711646 0.39861923
vn 0 0.9171166 0.39861894
vn 0 0.9171166 0.39861894
vn 0 0.9171166 0.39861894
vn 0 0.9171166 0.39861894
# 136 vertex normals

vt 0.625 0.75 0
vt 0.625 0.53347135 0
vt 0.375 0.5621333 0
vt 0.625 0.70979583 0
vt 0.625 0.08040822 0
vt 0.875 0.66959184 0
vt 0.625 0.51782304 0
vt 0.375 0.5495647 0
vt 0.375 0.19415104 0
vt 0.12499999 0.5558489 0
vt 0.125 0.5 0
vt 0.375 0.25 0
vt 0.37499997 0.21652867 0
vt 0.125 0.53347135 0
vt 0.625 0.18786679 0
vt 0.875 0.5621333 0
vt 0.125 0.70979595 0
vt 0.37500003 0.040204115 0
vt 0.375 0.5 0
vt 0.375 0.23217696 0
vt 0.125 0.51782304 0
vt 0.625 0.20043534 0
vt 0.875 0.5495647 0
vt 0.625 0.6695918 0
vt 0.625 0.25 0
vt 0.875 0.5 0
vt 0.375 0.53347135 0
vt 0.375 0.55584896 0
vt 0.375 0.70979583 0
vt 0.625 0.5 0
vt 0.375 0.51782304 0
vt 0.625 0.5621333 0
vt 0.625 1 0
vt 0.375 0.08040822 0
vt 0.125 0.6695918 0
vt 0.125 0.75 0
vt 0.375 0 0
vt 0.625 0.5495647 0
vt 0.625 0.21652868 0
vt 0.875 0.53347135 0
vt 0.625 0.19415107 0
vt 0.87499994 0.55584896 0
vt 0.875 0.70979595 0
vt 0.625 0.040204108 0
vt 0.375 0.75 0
vt 0.125 0.5495647 0
vt 0.625 0.23217696 0
vt 0.875 0.51782304 0
vt 0.375 0.18786679 0
vt 0.125 0.56213325 0
vt 0.375 1 0
vt 0.375 0.6695918 0
vt 0.875 0.75 0
vt 0.625 0 0
vt 0.375 0.20043533 0
vt 0.62500006 0.5558491 0
# 56 texture coords

usemtl Material.001
s 1
f 34/4/1 35/43/2 7/53/3 3/1/4
f 4/45/5 3/1/6 7/33/7 8/51/8
f 9/20/9 11/47/10 5/25/11 6/12/12
f 33/17/13 36/29/14 4/45/15 8/36/16
f 36/29/17 34/4/18 3/1/19 4/45/20
f 6/12/21 5/25/22 1/30/23 2/19/24
f 2/19/25 1/30/26 10/7/27 12/31/28
f 6/11/29 2/19/30 12/31/31 9/21/32
f 13/13/33 15/39/34 11/47/35 9/20/36
f 1/30/37 5/26/38 11/48/39 10/7/40
f 17/55/41 19/22/42 15/39/43 13/13/44
f 12/31/45 10/7/46 14/2/47 16/27/48
f 9/21/49 12/31/50 16/27/51 13/14/52
f 10/7/53 11/48/54 15/40/55 14/2/56
f 27/9/57 25/41/58 19/22/59 17/55/60
f 16/27/61 14/2/62 18/38/63 20/8/64
f 13/14/65 16/27/66 20/8/67 17/46/68
f 14/2/69 15/40/70 19/23/71 18/38/72
f 29/34/73 31/5/74 23/15/75 21/49/76
f 26/28/77 28/56/78 22/32/79 24/3/80
f 27/10/81 26/28/82 24/3/83 21/50/84
f 28/56/85 25/42/86 23/16/87 22/32/88
f 18/38/89 19/23/90 25/42/91 28/56/92
f 17/46/93 20/8/94 26/28/95 27/10/96
f 20/8/97 18/38/98 28/56/99 26/28/100
f 21/49/101 23/15/102 25/41/103 27/9/104
f 33/18/105 35/44/106 31/5/107 29/34/108
f 24/3/109 22/32/110 30/24/111 32/52/112
f 21/50/113 24/3/114 32/52/115 29/35/116
f 22/32/117 23/16/118 31/6/119 30/24/120
f 8/37/121 7/54/122 35/44/123 33/18/124
f 32/52/125 30/24/126 34/4/127 36/29/128
f 29/35/129 32/52/130 36/29/131 33/17/132
f 30/24/133 31/6/134 35/43/135 34/4/136
#34 polygons

